{
  "accessors": [
    {
      "bufferView": 2,
      "componentType": 5126,
      "count": 14356,
      "max": [
        0.9424954056739807,
        0.8128451108932495,
        0.900973916053772
      ],
      "min": [
        -0.9474585652351379,
        -1.18715500831604,
        -0.9009949564933777
      ],
      "type": "VEC3"
    },
    {
      "bufferView": 2,
      "byteOffset": 172272,
      "componentType": 5126,
      "count": 14356,
      "max": [
        1.0,
        1.0,
        1.0
      ],
      "min": [
        -1.0,
        -1.0,
        -1.0
      ],
      "type": "VEC3"
    },
    {
      "bufferView": 3,
      "componentType": 5126,
      "count": 14356,
      "max": [
        1.0,
        1.0,
        1.0,
        1.0
      ],
      "min": [
        -1.0,
        -1.0,
        -1.0,
        -1.0
      ],
      "type": "VEC4"
    },
    {
      "bufferView": 1,
      "componentType": 5126,
      "count": 14356,
      "max": [
        0.9999759793281555,
        1.9986660480499268
      ],
      "min": [
        0.002448640065267682,
        1.0005531311035156
      ],
      "type": "VEC2"
    },
    {
      "bufferView": 1,
      "byteOffset": 114848,
      "componentType": 5126,
      "count": 14356,
      "max": [
        0.9999759793281555,
        1.9986660480499268
      ],
      "min": [
        0.002448640065267682,
        1.0005531311035156
      ],
      "type": "VEC2"
    },
    {
      "bufferView": 1,
      "byteOffset": 229696,
      "componentType": 5126,
      "count": 14356,
      "max": [
        0.9999759793281555,
        1.9986660480499268
      ],
      "min": [
        0.002448640065267682,
        1.0005531311035156
      ],
      "type": "VEC2"
    },
    {
      "bufferView": 1,
      "byteOffset": 344544,
      "componentType": 5126,
      "count": 14356,
      "max": [
        0.9999759793281555,
        1.9986660480499268
      ],
      "min": [
        0.002448640065267682,
        1.0005531311035156
      ],
      "type": "VEC2"
    },
    {
      "bufferView": 1,
      "byteOffset": 459392,
      "componentType": 5126,
      "count": 14356,
      "max": [
        0.9999759793281555,
        1.9986660480499268
      ],
      "min": [
        0.002448640065267682,
        1.0005531311035156
      ],
      "type": "VEC2"
    },
    {
      "bufferView": 1,
      "byteOffset": 574240,
      "componentType": 5126,
      "count": 14356,
      "max": [
        0.9999759793281555,
        1.9986660480499268
      ],
      "min": [
        0.002448640065267682,
        1.0005531311035156
      ],
      "type": "VEC2"
    },
    {
      "bufferView": 0,
      "componentType": 5125,
      "count": 46356,
      "type": "SCALAR"
    }
  ],
  "asset": {
    "extras": {
      "author": "tooawesometodie (https://sketchfab.com/tooawesometodie)",
      "license": "CC-BY-4.0 (http://creativecommons.org/licenses/by/4.0/)",
      "source": "https://sketchfab.com/3d-models/damaged-helmet-dbd6f8e4697e4cadaca6fc8ec49a9073",
      "title": "Damaged Helmet"
    },
    "generator": "Sketchfab-17.15.0",
    "version": "2.0"
  },
  "bufferViews": [
    {
      "buffer": 0,
      "byteLength": 185424,
      "name": "floatBufferViews",
      "target": 34963
    },
    {
      "buffer": 0,
      "byteLength": 689088,
      "byteOffset": 185424,
      "byteStride": 8,
      "name": "floatBufferViews",
      "target": 34962
    },
    {
      "buffer": 0,
      "byteLength": 344544,
      "byteOffset": 874512,
      "byteStride": 12,
      "name": "floatBufferViews",
      "target": 34962
    },
    {
      "buffer": 0,
      "byteLength": 229696,
      "byteOffset": 1219056,
      "byteStride": 16,
      "name": "floatBufferViews",
      "target": 34962
    }
  ],
  "buffers": [
    {
      "byteLength": 1448752,
      "uri": "scene.bin"
    }
  ],
  "images": [
    {
      "uri": "textures/Material_MR_baseColor.jpeg"
    },
    {
      "uri": "textures/Material_MR_metallicRoughness.png"
    },
    {
      "uri": "textures/Material_MR_emissive.jpeg"
    },
    {
      "uri": "textures/Material_MR_normal.jpeg"
    }
  ],
  "materials": [
    {
      "emissiveFactor": [
        1.0,
        1.0,
        1.0
      ],
      "emissiveTexture": {
        "index": 2
      },
      "name": "Material_MR",
      "normalTexture": {
        "index": 3
      },
      "occlusionTexture": {
        "index": 1
      },
      "pbrMetallicRoughness": {
        "baseColorTexture": {
          "index": 0
        },
        "metallicRoughnessTexture": {
          "index": 1
        }
      }
    }
  ],
  "meshes": [
    {
      "name": "Object_0",
      "primitives": [
        {
          "attributes": {
            "NORMAL": 1,
            "POSITION": 0,
            "TANGENT": 2,
            "TEXCOORD_0": 3,
            "TEXCOORD_1": 4,
            "TEXCOORD_2": 5,
            "TEXCOORD_3": 6,
            "TEXCOORD_4": 7,
            "TEXCOORD_5": 8
          },
          "indices": 9,
          "material": 0,
          "mode": 4
        }
      ]
    }
  ],
  "nodes": [
    {
      "children": [
        1
      ],
      "matrix": [
        1.0,
        0.0,
        0.0,
        0.0,
        0.0,
        2.220446049250313e-16,
        -1.0,
        0.0,
        0.0,
        1.0,
        2.220446049250313e-16,
        0.0,
        0.0,
        0.0,
        0.0,
        1.0
      ],
      "name": "Sketchfab_model"
    },
    {
      "children": [
        2
      ],
      "name": "root"
    },
    {
      "children": [
        3
      ],
      "matrix": [
        1.0,
        0.0,
        0.0,
        0.0,
        0.0,
        2.220446049250313e-16,
        1.0,
        0.0,
        0.0,
        -1.0,
        2.220446049250313e-16,
        0.0,
        0.0,
        0.0,
        0.0,
        1.0
      ],
      "name": "GLTF_SceneRootNode"
    },
    {
      "children": [
        4
      ],
      "matrix": [
        1.0,
        0.0,
        0.0,
        0.0,
        0.0,
        0.0,
        1.0,
        0.0,
        0.0,
        -1.0,
        0.0,
        0.0,
        0.0,
        0.0,
        0.0,
        1.0
      ],
      "name": "node_damagedHelmet_-6514_0"
    },
    {
      "mesh": 0,
      "name": "Object_4"
    }
  ],
  "samplers": [
    {
      "magFilter": 9729,
      "minFilter": 9729,
      "wrapS": 10497,
      "wrapT": 10497
    }
  ],
  "scene": 0,
  "scenes": [
    {
      "name": "Sketchfab_Scene",
      "nodes": [
        0
      ]
    }
  ],
  "textures": [
    {
      "sampler": 0,
      "source": 0
    },
    {
      "sampler": 0,
      "source": 1
    },
    {
      "sampler": 0,
      "source": 2
    },
    {
      "sampler": 0,
      "source": 3
    }
  ]
}
